<svg xmlns="http://www.w3.org/2000/svg" width="20" height="19" viewBox="0 0 20 19">
    <path fill="#C0790A" d="M11.963 1.15C11.558.437 10.81 0 10 0S8.442.438 8.037 1.15L.304 14.732c-.405.712-.405 1.588 0 2.3.405.71 1.153 1.149 1.963 1.149h15.466c.81 0 1.558-.438 1.963-1.15.405-.71.405-1.587 0-2.299L11.963 1.15zm6.77 15.319c-.204.364-.586.588-1 .586H2.267c-.413 0-.794-.224-1-.586-.207-.363-.207-.81 0-1.172L9 1.713c.206-.363.587-.586 1-.586.413 0 .794.223 1 .586l7.734 13.584c.209.362.209.81 0 1.172zm-9.289-4.787v-6.58c0-.31.25-.563.556-.563.307 0 .556.253.556.564v6.579c0 .31-.25.563-.556.563-.307 0-.556-.252-.556-.563zm1.406 2.91c0 .476-.38.862-.85.862s-.85-.386-.85-.863c0-.476.38-.862.85-.862.226 0 .442.091.601.253.16.162.25.38.25.61z"/>
</svg>
