<svg xmlns="http://www.w3.org/2000/svg" width="18" height="12" viewBox="0 0 18 12">
    <path fill="#ADADAD" d="M9.053 0C3.372 0 0 5.625 0 5.625s3.372 5.625 9.053 5.625C14.622 11.25 18 5.625 18 5.625S14.622 0 9.053 0zM9 1.688c2.194 0 3.938 1.743 3.938 3.937S11.194 9.563 9 9.563 5.062 7.819 5.062 5.624 6.806 1.687 9 1.687zm0 1.687c-1.237 0-2.25 1.013-2.25 2.25S7.763 7.875 9 7.875c1.238 0 2.25-1.013 2.25-2.25 0-.338-.064-.615-.176-.897-.169.225-.387.335-.668.335-.45 0-.844-.394-.844-.844 0-.282.11-.5.334-.669-.281-.112-.56-.176-.897-.176L9 3.375z"/>
</svg>
