<svg xmlns="http://www.w3.org/2000/svg" width="18" height="18" viewBox="0 0 18 18">
    <g fill="none">
        <path fill="#ADADAD" d="M18 9c0-4.95-4.05-9-9-9-.338 0-.563.225-.563.563V9H0c0 4.95 4.05 9 9 9s9-4.05 9-9z"/>
        <path fill="#969696" d="M1.238 6.3c.224 0 .45-.112.506-.337.112-.282 0-.62-.282-.732-.28-.112-.618 0-.73.282-.113.28 0 .618.28.73.057 0 .113.057.226.057zM5.963 1.688c.056 0 .112 0 .224-.057.282-.112.45-.45.338-.731-.113-.281-.45-.45-.731-.338-.281.113-.45.45-.338.732.056.281.281.393.506.393zM3.544 2.531c-.225-.225-.563-.225-.788 0-.225.225-.225.563 0 .788.113.112.282.168.394.168.169 0 .281-.056.394-.168.168-.169.168-.563 0-.788z"/>
    </g>
</svg>
