<svg xmlns="http://www.w3.org/2000/svg" width="220" height="34" viewBox="0 0 220 34">
    <g fill="none" fill-rule="evenodd">
        <path fill="#000" d="M48.81 33.516h2.044V16.274h6.004v-2.007H42.805v2.007h6.005v17.242zm12.009 0h2.018v-19.25H60.82v19.25zm7.256 0h1.968V17.952l6.515 10.284h.102l6.516-10.312v15.592h2.018v-19.25H83.15l-6.515 10.505-6.516-10.504h-2.044v19.25zm22.178 0h13.057v-1.98H92.272V24.8h9.76v-1.98h-9.76v-6.572h10.91v-1.98H90.253v19.25zm23.251.275c3.552 0 6.107-2.145 6.107-5.445v-.055c0-2.942-1.84-4.51-5.826-5.445-3.934-.907-4.854-1.925-4.854-3.74v-.054c0-1.733 1.482-3.108 3.807-3.108 1.84 0 3.5.633 5.161 2.09l1.175-1.677c-1.814-1.568-3.679-2.365-6.285-2.365-3.398 0-5.877 2.227-5.877 5.252v.055c0 3.162 1.891 4.592 6.005 5.555 3.756.852 4.65 1.87 4.65 3.657v.055c0 1.898-1.584 3.273-3.986 3.273-2.478 0-4.267-.908-6.132-2.723l-1.252 1.595c2.146 2.063 4.471 3.08 7.307 3.08zm9.837-.275v-19.25h7.308c4.267 0 6.848 2.723 6.848 6.655 0 4.51-3.22 6.82-7.231 6.82h-2.99v5.775h-3.935zm3.935-9.542h3.117c1.968 0 3.118-1.265 3.118-2.915v-.055c0-1.897-1.227-2.915-3.194-2.915h-3.04v5.885zm21.82 9.872c-5.518 0-9.479-4.427-9.479-9.9v-.055c0-5.472 4.012-9.954 9.53-9.954 5.52 0 9.48 4.427 9.48 9.9v.054c0 5.473-4.011 9.955-9.53 9.955zm.052-3.905c3.168 0 5.365-2.695 5.365-5.995v-.055c0-3.3-2.248-6.05-5.416-6.05-3.169 0-5.366 2.695-5.366 5.995v.055c0 3.3 2.248 6.05 5.417 6.05zm13.158 3.575h3.935v-19.25h-3.935v19.25zm8.407 0h3.883V21.28l8.662 12.237h3.347v-19.25h-3.884V26.12l-8.38-11.852h-3.628v19.25zm24.35 0h3.934V18.172h5.443v-3.905h-14.82v3.905h5.442v15.344zm18.37.275c3.859 0 6.567-2.145 6.567-5.967v-.055c0-3.355-2.044-4.758-5.672-5.775-3.092-.853-3.858-1.265-3.858-2.53v-.055c0-.935.792-1.677 2.3-1.677 1.507 0 3.065.715 4.65 1.897l2.043-3.19c-1.814-1.567-4.037-2.447-6.643-2.447-3.654 0-6.26 2.31-6.26 5.802v.055c0 3.822 2.325 4.895 5.928 5.885 2.99.825 3.603 1.375 3.603 2.447v.055c0 1.128-.971 1.815-2.58 1.815-2.045 0-3.731-.907-5.341-2.337l-2.325 2.997a10.926 10.926 0 0 0 7.588 3.08z"/>
        <g fill-rule="nonzero">
            <path fill="#FCC600" d="M18.282 30.157v2.597H5.406v-2.597h12.876zm0-22.256v20.401H5.406L0 14.281l6.532 4.414c2.59 1.78 6.194.816 7.508-2.04l4.242-8.754zm0-7.79v5.305l-2.177 1.001.225-2.263-1.464-1.632 2.14-.482L18.282.111z"/>
            <path fill="#FCAC16" d="M18.245 30.157v2.597H31.12v-2.597H18.245zm0-22.256v20.401H31.12l5.406-14.021-6.532 4.414c-2.59 1.78-6.194.816-7.508-2.04l-4.242-8.754zm0-7.79v5.305l2.177 1.001-.225-2.263 1.464-1.632-2.14-.482L18.245.111z"/>
        </g>
    </g>
</svg>
